<?xml version="1.0" standalone="no"?>
<!DOCTYPE svg PUBLIC "-//W3C//DTD SVG 20010904//EN"
 "http://www.w3.org/TR/2001/REC-SVG-20010904/DTD/svg10.dtd">
<svg version="1.0" xmlns="http://www.w3.org/2000/svg"
 width="400.000000pt" height="400.000000pt" viewBox="0 0 400.000000 400.000000"
 preserveAspectRatio="xMidYMid meet">
<metadata>
Created by potrace 1.11, written by Peter Selinger 2001-2013
</metadata>
<g transform="translate(0.000000,400.000000) scale(0.100000,-0.100000)"
fill="#000000" stroke="none">
<path d="M970 3240 c-99 -12 -230 -46 -343 -89 -126 -47 -307 -131 -307 -142
0 -4 10 -11 23 -14 57 -18 269 -132 363 -196 174 -119 356 -304 477 -487 45
-67 157 -283 171 -327 5 -16 -1 -25 -25 -39 -54 -32 -154 -133 -181 -183 -35
-65 -43 -133 -23 -206 8 -32 12 -64 8 -70 -4 -7 -23 -32 -41 -57 -124 -162
-115 -373 22 -511 251 -255 934 -212 1404 87 91 58 232 207 275 290 65 126 82
254 51 384 -26 111 -69 167 -171 219 l-42 21 16 37 c37 90 118 247 168 328
183 291 394 476 744 651 l123 61 -103 51 c-446 216 -860 245 -1253 89 l-90
-36 -35 31 c-121 106 -282 103 -394 -7 l-39 -38 -102 42 c-246 101 -473 137
-696 111z m336 -80 c358 -160 569 -592 629 -1287 l6 -73 -50 -2 c-116 -4 -101
-18 -127 114 -74 381 -219 723 -480 1134 -46 72 -84 136 -84 142 0 13 31 5
106 -28z m1473 -58 c-197 -209 -381 -603 -479 -1027 -12 -49 -23 -97 -26 -106
-5 -19 -153 -124 -162 -115 -3 4 4 77 16 164 91 641 304 1042 607 1138 22 7
55 13 74 13 l33 1 -63 -68z m-1980 -68 c346 -80 632 -445 796 -1016 19 -66 35
-121 35 -123 0 -4 -110 21 -114 26 -1 2 -18 42 -36 89 -79 203 -197 405 -316
540 -170 194 -421 363 -659 445 -44 16 -84 32 -89 36 -4 4 23 10 60 14 38 4
74 8 79 11 19 7 179 -6 244 -22z m2780 -20 c20 -6 7 -13 -72 -40 -235 -79
-382 -162 -510 -284 -105 -100 -182 -212 -292 -425 -189 -363 -264 -474 -388
-571 -38 -30 -77 -59 -86 -63 -13 -8 -17 -34 -21 -138 l-5 -128 -53 -19 c-29
-10 -55 -16 -58 -14 -3 3 -8 54 -11 113 -5 91 -8 106 -22 102 -9 -3 -37 -11
-63 -18 -54 -15 -58 -25 -58 -145 l0 -74 -42 0 c-24 0 -53 -3 -65 -6 -23 -6
-23 -5 -23 91 l0 97 -52 -6 c-76 -10 -240 11 -331 40 -92 31 -147 75 -147 120
1 42 34 110 65 130 26 17 125 47 132 40 2 -2 -10 -17 -27 -34 -50 -50 -35 -93
47 -132 72 -35 258 -40 373 -11 162 41 282 113 401 238 87 93 122 151 236 390
139 290 206 400 317 520 110 119 236 191 401 229 62 14 304 13 354 -2z m-1473
-134 c38 -24 74 -92 74 -142 0 -104 -132 -172 -230 -117 -49 27 -70 66 -70
126 0 119 126 194 226 133z m577 -1182 c70 -94 23 -258 -117 -406 -168 -177
-405 -273 -749 -304 -293 -26 -597 57 -622 171 -7 33 17 104 52 149 30 40 103
89 153 102 100 26 100 26 42 -25 -118 -106 -109 -183 26 -226 176 -55 485 -27
727 66 259 100 411 262 423 452 5 72 5 73 26 60 11 -8 29 -25 39 -39z"/>
</g>
</svg>
