<?xml version="1.0" standalone="no"?>
<!DOCTYPE svg PUBLIC "-//W3C//DTD SVG 1.1//EN" "http://www.w3.org/Graphics/SVG/1.1/DTD/svg11.dtd" >
<svg xmlns="http://www.w3.org/2000/svg" xmlns:xlink="http://www.w3.org/1999/xlink" version="1.1">
<metadata></metadata>
<defs>
<font id="arima_koshithin" horiz-adv-x="1228" >
<font-face units-per-em="2048" ascent="1638" descent="-410" />
<missing-glyph horiz-adv-x="460" />
<glyph horiz-adv-x="0" />
<glyph horiz-adv-x="682" />
<glyph unicode=" "  horiz-adv-x="460" />
<glyph unicode="&#x09;" horiz-adv-x="460" />
<glyph unicode="&#xa0;" horiz-adv-x="460" />
<glyph unicode="!" horiz-adv-x="548" d="M205 45q0 28 20.5 49t48.5 21t49 -21t21 -49t-21 -49t-49 -21t-48.5 21t-20.5 49zM236 1470l8 -1136h61l8 1136q-39 9 -77 0z" />
<glyph unicode="&#x22;" horiz-adv-x="432" d="M82 1489l12 -240h45l13 240q-35 9 -70 0zM281 1489l12 -240h45l12 240q-34 9 -69 0z" />
<glyph unicode="#" horiz-adv-x="1392" d="M59 475l9 53h352l65 357h-360l8 53h363l86 471h61l-86 -471h348l86 471h62l-86 -471h360l-8 -53h-363l-65 -357h371l-9 -53h-372l-86 -475h-62l86 475h-348l-86 -475h-61l86 475h-351zM481 528h348l66 357h-348z" />
<glyph unicode="$" horiz-adv-x="1112" d="M135 291q0 51 17.5 72.5t60.5 17.5q-10 -33 -10 -68q0 -139 94.5 -208.5t255.5 -71.5l-2 688q-46 25 -69 38t-62 36.5t-59 38t-49.5 38t-44.5 42t-34 44t-27.5 50t-15 55t-6.5 63.5q0 147 101.5 224.5t263.5 83.5q-3 97 -12 137q16 16 32 16q31 0 31 -45v-108 q159 -6 255.5 -78.5t96.5 -188.5q0 -47 -26 -63q-19 -11 -49 -2q12 22 12 53q0 102 -81 158.5t-208 62.5l2 -610q98 -53 163.5 -97t120 -98t80 -116.5t25.5 -137.5q0 -48 -10 -91t-37 -88.5t-69 -79t-111.5 -56.5t-159.5 -27q3 -99 12 -139q-16 -16 -32 -16q-31 0 -31 45 v110q-211 3 -314.5 92.5t-103.5 223.5zM250 1135q0 -44 11 -82t36 -70.5t48 -56t65 -51t67 -42t74 -40.5l-2 583q-61 -2 -112 -16t-94.5 -41t-68 -74t-24.5 -110zM602 692l2 -657q151 8 236.5 80t85.5 202q0 63 -20 114t-65.5 96t-99 81t-139.5 84z" />
<glyph unicode="%" horiz-adv-x="1957" d="M100 1040q0 198 80 296t232 98q309 0 309 -394q0 -395 -309 -395q-152 0 -232 98t-80 297zM156 1040q0 -352 256 -352q123 0 189.5 87t66.5 265q0 177 -66.5 264t-189.5 87q-256 0 -256 -351zM494 4l929 1430q16 3 28.5 -5t12.5 -24l-929 -1430q-32 0 -41 29zM1237 379 q0 198 79.5 295.5t231.5 97.5q310 0 310 -393q0 -395 -310 -395q-311 0 -311 395zM1292 379q0 -352 256 -352q123 0 189.5 87.5t66.5 264.5t-66.5 263.5t-189.5 86.5q-256 0 -256 -350z" />
<glyph unicode="&#x26;" horiz-adv-x="1622" d="M141 586q0 107 33.5 196t90.5 146.5t129.5 89t152.5 31.5q72 0 128.5 -26t90 -69t51 -95t17.5 -107q0 -109 -59 -183t-175 -143q159 72 338.5 204t327.5 288q-31 92 -80 172t-112 141t-142 94t-164 29q0 31 17 43t55 12q147 0 274.5 -125t200.5 -313q109 126 170 231 q31 0 44.5 -15.5t0.5 -37.5q-79 -124 -193 -244q43 -140 43 -266q0 -145 -51.5 -271t-139 -213t-206 -136.5t-250.5 -49.5q-110 0 -206.5 34.5t-166 94t-120 138.5t-75 168t-24.5 182zM207 594q0 -107 35.5 -207.5t100.5 -181t167.5 -129.5t226.5 -49q114 0 218 41.5 t184.5 118t128 193.5t47.5 259q0 99 -29 215q-190 -187 -416 -326t-403 -192l-10 41q66 37 106.5 62t86 61t69.5 69t40.5 77t16.5 95q0 107 -60 178.5t-177 71.5q-138 0 -235 -106t-97 -291z" />
<glyph unicode="'" horiz-adv-x="233" d="M82 1489l12 -240h45l13 240q-35 9 -70 0z" />
<glyph unicode="(" horiz-adv-x="827" d="M246 590q0 160 25 301t66.5 240.5t91.5 179t103 126.5t98 71t79 24q17 0 25.5 -6.5t9.5 -12.5t1 -20q-117 -28 -217 -157t-159.5 -327.5t-59.5 -418.5t59.5 -418.5t159.5 -327.5t217 -157q0 -14 -1 -20t-9.5 -12.5t-25.5 -6.5q-34 0 -79 24t-98 71t-103 126.5t-91.5 179 t-66.5 240.5t-25 301z" />
<glyph unicode=")" horiz-adv-x="827" d="M82 -313q117 28 217 157t159.5 327.5t59.5 418.5t-59.5 418.5t-159.5 327.5t-217 157q0 13 1 19.5t10 13t26 6.5q34 0 79 -24t98 -71t103 -126.5t91.5 -179t66.5 -240.5t25 -301t-25 -301t-66.5 -240.5t-91.5 -179t-103 -126.5t-98 -71t-79 -24q-17 0 -26 6.5t-10 13 t-1 19.5z" />
<glyph unicode="*" horiz-adv-x="1050" d="M78 1079q0 46 28 79.5t84 33.5q62 0 119 -43t97 -113q43 22 94 66q-88 105 -88 211q0 123 116 123q58 0 87.5 -34t29.5 -93q0 -106 -86 -205q49 -49 100 -74q44 68 98 110t109 42q50 0 78.5 -34t28.5 -81q0 -59 -44.5 -90t-115.5 -31q-62 0 -131 27q-28 -55 -45 -121 q92 -25 150.5 -79.5t58.5 -113.5q0 -45 -34.5 -76.5t-80.5 -31.5q-69 0 -110 68t-41 157q0 15 4 47q-40 4 -60 4q-21 0 -53 -4v-18q0 -63 -19 -121.5t-58 -98.5t-89 -40q-44 0 -77 31t-33 77q0 64 63 121t160 80q-5 54 -35 127q-76 -27 -135 -27q-74 0 -122 32.5t-48 92.5z M127 1077q0 -41 33 -61.5t88 -20.5q53 0 117 23q-33 59 -77.5 95t-88.5 36q-34 0 -53 -20.5t-19 -51.5zM242 655q0 -28 18.5 -47.5t44.5 -19.5q50 0 83.5 67t33.5 150v8q-78 -22 -129 -66.5t-51 -91.5zM426 999q32 -70 41 -137q36 4 55 4q22 0 68 -4q15 62 47 129 q-72 42 -109 82q-48 -45 -102 -74zM461 1315q0 -94 71 -178q72 85 72 170q0 88 -76 88q-67 0 -67 -80zM629 776q0 -40 9.5 -79t34.5 -70t60 -31q29 0 50.5 19t21.5 47q0 43 -49.5 85.5t-124.5 65.5q-2 -12 -2 -37zM702 1010q57 -23 111 -23q52 0 84.5 20.5t32.5 61.5 q0 31 -18 51.5t-48 20.5q-41 0 -83.5 -36t-78.5 -95z" />
<glyph unicode="+" horiz-adv-x="1140" d="M170 692q-12 31 0 62h369v370q31 12 61 0v-370h371q12 -31 0 -62h-371v-370q-31 -10 -59 2v368h-371z" />
<glyph unicode="," horiz-adv-x="483" d="M164 45q0 21 20 45.5t56 24.5q31 0 55 -21t24 -76q0 -108 -116 -202q-25 7 -37 28q53 56 53 117q0 63 -55 84z" />
<glyph unicode="-" horiz-adv-x="817" d="M123 496v57h571v-57h-571z" />
<glyph unicode="." horiz-adv-x="466" d="M164 45q0 28 20.5 49t48.5 21t49 -21t21 -49t-21 -49t-49 -21t-48.5 21t-20.5 49z" />
<glyph unicode="/" horiz-adv-x="800" d="M14 -291l662 1786h65l-661 -1786h-66z" />
<glyph unicode="0" horiz-adv-x="1245" d="M154 705q0 368 121 548.5t348 180.5t348 -180.5t121 -548.5t-121 -549t-348 -181t-348 181t-121 549zM219 705q0 -340 104.5 -506t299.5 -166t299 166t104 506t-104 505.5t-299 165.5t-299.5 -165.5t-104.5 -505.5z" />
<glyph unicode="1" horiz-adv-x="813" d="M83.5 1130q-0.5 4 0 12.5t0.5 10.5q18 5 155.5 101t211.5 157q16 8 28 8q35 0 35 -45l4 -1196q0 -128 12 -178q-16 -16 -36 -16q-35 0 -35 45l-4 1196q0 52 -4 118q-85 -74 -198 -154.5t-136 -80.5q-12 0 -20 2.5t-10.5 9t-3 10.5z" />
<glyph unicode="2" horiz-adv-x="1091" d="M109 59q122 97 208.5 169.5t180.5 159t155.5 159.5t114 152.5t77.5 158t25 156.5q0 157 -91 259.5t-259 102.5q-68 0 -124 -19.5t-90.5 -47.5t-59.5 -64t-35.5 -65t-13.5 -54q-20 0 -32.5 12.5t-12.5 37.5q0 35 24.5 78t69 84t117.5 68.5t159 27.5q80 0 151.5 -23.5 t131.5 -70.5t95.5 -127.5t35.5 -184.5q0 -108 -43 -218t-109.5 -203t-172 -196t-202.5 -182t-229 -176h840q12 -6 12 -26.5t-12 -26.5h-891q-24 10 -20 59z" />
<glyph unicode="3" horiz-adv-x="1107" d="M94 238q0 45 47 45q6 -31 16.5 -59.5t37 -65t64.5 -62.5t103.5 -44.5t149.5 -18.5q192 0 293.5 88t101.5 241q0 78 -28 139.5t-75.5 102t-114.5 67.5t-140 39t-158 15v55q214 3 341.5 90.5t127.5 233.5q0 117 -86.5 194.5t-243.5 77.5q-72 0 -131.5 -19t-95.5 -46.5 t-62 -63t-37 -65t-14 -56.5q-47 0 -47 48q0 25 13 57t44 68t75 66t113 49.5t151 19.5q62 0 117 -10t106 -34.5t87.5 -61t58.5 -93t22 -127.5q0 -280 -336 -352q88 -18 154.5 -46.5t119 -74t80 -113t27.5 -155.5q0 -190 -126 -291t-335 -101q-95 0 -172 21.5t-121.5 53 t-74.5 69.5t-41 68t-11 51z" />
<glyph unicode="4" horiz-adv-x="1181" d="M96 408q-27 29 0 61l721 936q13 18 37 18q35 0 35 -45l4 -919q104 3 205 12q13 -14 12.5 -37t-12.5 -26h-205v-230q0 -128 12 -178q-16 -16 -37 -16q-34 0 -34 45l-3 379h-735zM166 459h665l-4 864z" />
<glyph unicode="5" horiz-adv-x="1128" d="M152 242q0 19 14.5 32t36.5 13q2 -26 12.5 -57t35.5 -67.5t60.5 -65.5t92.5 -48.5t126 -19.5q400 0 400 420q0 184 -99.5 280t-263.5 96q-68 0 -145.5 -21.5t-114.5 -38.5t-65 -32q-37 0 -37 41l26 600q0 17 10.5 26t26.5 9q497 0 635 4q6 -18 -4 -57h-608l-25 -551 q80 36 148 55t159 19q192 0 307 -114.5t115 -307.5q0 -131 -36.5 -226.5t-102 -150t-146.5 -80t-180 -25.5q-164 0 -271 85t-107 182z" />
<glyph unicode="6" horiz-adv-x="1163" d="M154 610q0 221 33 379.5t98.5 256t158.5 143t218 45.5q93 0 184.5 -41t91.5 -82q0 -13 -9.5 -22t-21.5 -7q-103 98 -239 98q-448 0 -453 -747q61 99 172 169t250 70q180 0 289.5 -107t109.5 -310q0 -219 -115 -349.5t-305 -130.5q-71 0 -133.5 17.5t-124 62.5t-106 115 t-71.5 182.5t-27 257.5zM217 543q11 -237 110.5 -375.5t288.5 -138.5q73 0 133 24.5t100.5 65t68.5 95.5t40.5 115t12.5 124q0 168 -90.5 267t-243.5 99q-138 0 -248.5 -79.5t-171.5 -196.5z" />
<glyph unicode="7" horiz-adv-x="1021" d="M82 1382.5q0 20.5 12 26.5h391h418q20 0 26.5 -22.5t-5.5 -36.5q-131 -159 -241.5 -421.5t-168 -510.5t-57.5 -418q-30 -15 -60 0q0 179 62.5 444.5t170 523t222.5 388.5h-758q-12 6 -12 26.5z" />
<glyph unicode="8" horiz-adv-x="1177" d="M133 328q0 150 108.5 264t274.5 162q-77 33 -131 64t-103.5 75t-74.5 101.5t-25 127.5q0 39 12.5 79.5t42.5 82.5t74 75t114.5 54t156.5 21q194 0 297.5 -87.5t103.5 -220.5q0 -125 -83 -221.5t-236 -159.5q92 -46 157 -87t118 -91t79 -108.5t26 -126.5q0 -51 -14 -99 t-48 -95.5t-85 -83t-132 -57.5t-181 -22q-101 0 -181 22t-129.5 57t-82 82.5t-45.5 94.5t-13 97zM199 332q0 -61 21.5 -112t58.5 -86.5t86.5 -60.5t104.5 -36.5t114 -11.5q103 0 191.5 33t146 102.5t57.5 163.5q0 58 -24.5 111t-61 93t-93 79t-107 65t-115.5 55 q-379 -134 -379 -395zM248 1116q0 -36 8.5 -67t21 -55.5t37.5 -49t48 -42t64 -40.5t73.5 -38.5t87.5 -41.5q3 -1 6 -2.5l6 -3t4 -2.5q314 144 314 354q0 108 -94.5 181t-239.5 73q-66 0 -125 -16t-107 -47t-76 -83.5t-28 -119.5z" />
<glyph unicode="9" horiz-adv-x="1163" d="M150 975q0 210 112 334.5t299 124.5q74 0 136.5 -17.5t121.5 -62.5t100.5 -115t66 -182.5t24.5 -257.5q0 -186 -21 -326t-60.5 -235t-101 -153.5t-137 -84t-174.5 -25.5q-115 0 -195 38t-120 87q-19 25 -9.5 46t35.5 18q70 -77 139.5 -105t145.5 -28q81 0 146.5 24.5 t110 64t77.5 100t52 122t30.5 140t15.5 144.5t4 146q-59 -97 -166 -166t-241 -69q-177 0 -284 112.5t-107 325.5zM215 977q0 -178 88 -282.5t238 -104.5q132 0 239.5 79t165.5 197q-21 514 -385 514q-88 0 -156.5 -35t-108.5 -93.5t-60.5 -128t-20.5 -146.5z" />
<glyph unicode=":" horiz-adv-x="466" d="M164 45q0 28 20.5 49t48.5 21t49 -21t21 -49t-21 -49t-49 -21t-48.5 21t-20.5 49zM164 737q0 28 20.5 49t48.5 21t49 -21t21 -49t-21 -48.5t-49 -20.5t-48.5 20.5t-20.5 48.5z" />
<glyph unicode=";" horiz-adv-x="485" d="M164 45q0 21 20 45.5t56 24.5q31 0 55 -21t24 -76q0 -108 -116 -202q-25 7 -37 28q53 56 53 117q0 63 -55 84zM182 737q0 28 21 49t49 21t49 -21t21 -49t-21 -48.5t-49 -20.5t-49 20.5t-21 48.5z" />
<glyph unicode="&#x3c;" horiz-adv-x="976" d="M84 696q-16 23 0 45l750 353q9 4 17 -4t10.5 -22.5t-1.5 -33.5l-700 -315l700 -316q3 -18 0.5 -32.5t-10 -22.5t-16.5 -4z" />
<glyph unicode="=" horiz-adv-x="1140" d="M170 475q-12 31 0 62h801q12 -31 0 -62h-801zM170 905q-12 31 0 62h801q12 -31 0 -62h-801z" />
<glyph unicode="&#x3e;" horiz-adv-x="978" d="M117.5 1067.5q2.5 14.5 10.5 22.5t17 4l750 -353q16 -23 0 -45l-750 -352q-9 -4 -16.5 4t-10 22.5t0.5 32.5l700 316l-700 315q-4 19 -1.5 33.5z" />
<glyph unicode="?" horiz-adv-x="995" d="M55 1237q0 35 24 77.5t68.5 84t120 69t166.5 27.5q66 0 128.5 -14.5t121 -47.5t102 -81.5t69.5 -122t26 -164.5q0 -195 -128.5 -329t-336.5 -167v-235h-60v295q52 0 111.5 15.5t121.5 50t112 82.5t82 119.5t32 154.5q0 174 -100.5 280.5t-290.5 106.5q-68 0 -124 -19.5 t-91 -47.5t-60 -64t-35.5 -65t-13.5 -54q-45 0 -45 49zM281 45q0 28 20.5 49t48.5 21t49 -21t21 -49t-21 -49t-49 -21t-48.5 21t-20.5 49z" />
<glyph unicode="@" horiz-adv-x="1697" d="M164 532q0 116 25 224t80.5 207.5t136.5 173t201 117.5t265 44q111 0 204 -24.5t160 -66t119.5 -100t85.5 -122.5t54.5 -137.5t30 -141t8.5 -137.5q0 -99 -16.5 -182t-43 -138.5t-62 -94.5t-72.5 -56.5t-74 -17.5q-66 0 -114 49.5t-48 134.5v90q-90 -248 -313 -248 q-52 0 -94.5 15t-70.5 38t-49 57t-32.5 67t-18 73t-8.5 69.5t-2 61.5q0 225 89 352.5t259 127.5q70 0 125 -22t87.5 -56.5t53.5 -81.5t29 -91.5t8 -92.5l-2 -353q0 -62 25.5 -99.5t73.5 -37.5q87 0 148.5 111.5t62.5 326.5q1 93 -13 179.5t-55 178.5t-105 159.5t-173.5 111 t-251.5 43.5q-133 0 -242.5 -39t-183.5 -105t-125 -156.5t-74 -191t-23 -210.5q0 -133 33.5 -249.5t88.5 -197t125 -137t144.5 -80.5t145.5 -16q10 -26 -1 -38.5t-48 -15.5q-57 -4 -127.5 19t-146 80t-137.5 139.5t-102 209.5t-40 277zM573 489q0 -329 222 -329 q138 0 223.5 126t85.5 322q0 303 -238 303q-143 0 -218 -105.5t-75 -316.5z" />
<glyph unicode="A" horiz-adv-x="1150" d="M55 20q0 4 13 50l464 1347q23 17 46 17q39 0 51 -35l458 -1336q14 -39 33 -61q-15 -18 -35 -18q-36 0 -45 28l-159 467h-607l-143 -420q-10 -25 -10 -43q0 -20 4 -28q-12 -4 -33 -4q-18 0 -28 9.5t-9 26.5zM291 532h571l-287 836z" />
<glyph unicode="B" horiz-adv-x="1144" d="M207 1407q41 27 213 27q256 0 378 -83t122 -266q0 -130 -62 -220.5t-184 -131.5q162 -28 239.5 -118.5t77.5 -249.5q0 -89 -25 -153.5t-69 -105t-116 -64.5t-155.5 -33t-197.5 -9h-168q-36 0 -39 45v1184q0 28 -4 92t-10 86zM283 57h168q93 0 159.5 6.5t130 26t101.5 53 t61 90.5t23 136q0 96 -32 162.5t-96.5 104t-148.5 53.5t-200 16h-166v-648zM283 758h237q65 0 122.5 18.5t106 56t77 103t28.5 151.5q0 163 -106.5 230t-348.5 67q-89 0 -116 -8v-618z" />
<glyph unicode="C" horiz-adv-x="1179" d="M143 705q0 356 133 542.5t377 186.5q154 0 257.5 -54t103.5 -116q0 -17 -16 -26.5t-35 -2.5q-19 63 -102 102t-208 39q-212 0 -328 -171.5t-116 -499.5t116 -500t328 -172q119 0 223.5 55t131.5 145q16 0 25.5 -1.5t16.5 -8.5t7 -20q0 -34 -32 -73.5t-85 -74 t-129.5 -57.5t-157.5 -23q-244 0 -377 187t-133 543z" />
<glyph unicode="D" horiz-adv-x="1288" d="M207 1423q194 11 397 11q263 0 402 -180.5t139 -548.5q0 -366 -137.5 -535.5t-403.5 -169.5h-346q-35 0 -35 45l-4 1184q0 145 -12 194zM279 1376l4 -1319h321q231 0 353 155.5t122 492.5q0 339 -123 505t-352 166h-325z" />
<glyph unicode="E" horiz-adv-x="1071" d="M207 1393q13 16 37 16h643q14 0 16.5 -12t-4.5 -25t-18 -16h-602l2 -578h561q9 -27 0 -53h-561l2 -674q105 0 312 1t312 1q16 -6 17 -29.5t-17 -23.5h-649q-35 0 -35 45l-4 1184q0 115 -12 164z" />
<glyph unicode="F" horiz-adv-x="1034" d="M207 1393q13 16 37 16h643q14 0 16.5 -12t-4.5 -25t-18 -16h-602l2 -594h557q9 -26 0 -53h-557l2 -531q0 -128 12 -178q-16 -16 -37 -16q-35 0 -35 45l-4 1200q0 115 -12 164z" />
<glyph unicode="G" horiz-adv-x="1226" d="M143 702q0 359 133 545.5t383 186.5q146 0 250.5 -54.5t104.5 -111.5q0 -21 -15 -30.5t-36 -2.5q-17 62 -101 101.5t-198 39.5q-222 0 -338.5 -170.5t-116.5 -500.5q0 -331 117 -501.5t342 -170.5q67 0 122 15.5t92 40.5t64.5 61t43 72.5t25 79.5t12.5 77.5t3 71.5 q0 284 -178 284q-3 43 55 43q34 0 65 -16t59.5 -51.5t45.5 -103.5t17 -161q0 -39 -3 -74.5t-13.5 -85t-28 -90.5t-49.5 -83t-75.5 -71.5t-109 -48t-145.5 -18.5q-258 0 -392.5 185t-134.5 542z" />
<glyph unicode="H" horiz-adv-x="1355" d="M207 1407q16 16 37 16q18 0 28.5 -12t10.5 -33v-600h792l-2 451q0 129 -12 178q16 16 37 16q18 0 28.5 -12t10.5 -33v-1200q0 -128 12 -178q-16 -16 -37 -16q-35 0 -35 45l-2 696h-792v-547q0 -128 12 -178q-16 -16 -37 -16q-35 0 -35 45l-4 1200q0 129 -12 178z" />
<glyph unicode="I" horiz-adv-x="501" d="M207 1407q16 16 37 16q18 0 28.5 -12t10.5 -33v-1200q0 -128 12 -178q-16 -16 -37 -16q-35 0 -35 45l-4 1200q0 129 -12 178z" />
<glyph unicode="J" horiz-adv-x="858" d="M109 184q0 26 13 46t40 20h6q-4 -16 -4 -45q0 -38 12.5 -68.5t32 -49.5t45 -31.5t50 -17.5t48.5 -5q70 0 117 20t72.5 61.5t36 94t10.5 127.5v960v80h-11q-65 0 -243 10q-11 1 -21 1q-84 0 -84 -76q0 -58 56 -84q-12 -10 -37 -10q-30 0 -53 30t-23 76q0 44 33 77.5 t92 33.5q17 0 105 -6t126 -7h15q43 0 112 9q-6 -45 -6 -138v-962q0 -51 -5 -93t-22.5 -93t-48 -86t-86 -59t-131.5 -24q-116 0 -181.5 61t-65.5 148z" />
<glyph unicode="K" horiz-adv-x="1134" d="M207 1407q16 16 37 16q35 0 35 -45l2 -639h69q95 0 179 32t143.5 85t102.5 120.5t64 139.5t21 141q0 89 -37 150q21 25 41 25q26 0 44 -40t18 -120q0 -79 -21.5 -158t-64.5 -154.5t-118.5 -138.5t-174.5 -100q84 -14 144.5 -53t93.5 -89.5t55 -121.5l102 -332 q25 -84 78 -84q47 0 67 35q11 -14 11 -31q0 -29 -28.5 -45t-57.5 -16q-37 0 -73 29.5t-50 78.5l-113 361q-13 34 -22 53.5t-26.5 47.5t-36.5 44.5t-51 35.5t-71 28.5t-94.5 16.5t-124.5 7h-69l2 -508q0 -128 12 -178q-16 -16 -37 -16q-35 0 -35 45l-4 1200q0 129 -12 178z " />
<glyph unicode="L" horiz-adv-x="933" d="M207 1407q16 16 37 16q35 0 35 -45l4 -1327q94 0 281.5 1t281.5 1q16 -6 17 -29.5t-17 -23.5h-588q-35 0 -35 45l-4 1184q0 129 -12 178z" />
<glyph unicode="M" horiz-adv-x="1740" d="M207 1407q16 16 33 16q21 0 30 -18q102 -177 307 -532.5t306 -532.5q109 203 308.5 581.5t260.5 493.5q11 8 31 8q35 0 35 -45l4 -1200q0 -128 12 -178q-16 -16 -37 -16q-35 0 -35 45l-4 1269l-545 -1019q-16 -11 -31.5 -11t-31.5 11q-96 165 -288 497.5t-288 497.5 l5 -1096q0 -128 12 -178q-16 -16 -37 -16q-31 0 -31 45l-4 1200q0 129 -12 178z" />
<glyph unicode="N" horiz-adv-x="1366" d="M207 1407q21 12 40 10t25 -8q98 -145 404 -637t420 -663l-4 1120q0 124 -13 178q16 16 37 16q35 0 35 -45l4 -1200q0 -145 4 -178q-7 -8 -24 -11t-25 1q-49 68 -164 245.5t-216.5 338t-253.5 402t-197 312.5l4 -1259q0 -45 -35 -45q-21 0 -37 16q12 50 12 178l-4 1030 q0 150 -12 199z" />
<glyph unicode="O" horiz-adv-x="1306" d="M143 705q0 368 131.5 548.5t378.5 180.5t378.5 -180.5t131.5 -548.5t-131.5 -549t-378.5 -181t-378.5 181t-131.5 549zM209 705q0 -340 115 -506t329 -166q215 0 330 166t115 506t-115 505.5t-330 165.5q-214 0 -329 -165.5t-115 -505.5z" />
<glyph unicode="P" horiz-adv-x="1095" d="M207 1407q41 27 209 27q292 0 423.5 -102t131.5 -310q0 -230 -152.5 -337t-472.5 -107h-63v-400q0 -28 4 -92t10 -86q-16 -16 -37 -16q-36 0 -39 45v1200q0 28 -4 92t-10 86zM283 629h86q273 0 404.5 94t131.5 297q0 192 -120.5 276t-387.5 84q-87 0 -114 -8v-743z" />
<glyph unicode="Q" horiz-adv-x="1306" d="M143 705q0 368 131.5 548.5t378.5 180.5t378.5 -180.5t131.5 -548.5t-131.5 -549t-378.5 -181q-52 0 -98 11q60 -44 82 -59.5t79 -51.5t91.5 -51t84.5 -28q46 -13 87 -13h6q92 0 147 47q46 40 46 99q0 12 -2 26q26 6 42.5 -10.5t16.5 -38.5q0 -85 -65 -132.5t-179 -47.5 h-7q-53 0 -108 14q-60 16 -107.5 38t-106.5 61t-95 66.5t-93 73.5t-81 64q-250 190 -250 662zM209 705q0 -340 115 -506t329 -166q215 0 330 166t115 506t-115 505.5t-330 165.5q-214 0 -329 -165.5t-115 -505.5z" />
<glyph unicode="R" horiz-adv-x="1171" d="M207 1407q6 4 23 9t71 11.5t127 6.5q288 0 415.5 -93.5t127.5 -306.5q0 -144 -78.5 -245.5t-208.5 -139.5q63 -20 102 -78t78 -157l117 -289q20 -48 37 -66t41 -18q47 0 67 35q11 -14 11 -31q0 -29 -28.5 -45t-57.5 -16q-36 0 -69.5 29t-53.5 79l-127 318q-34 86 -57 116 q-74 90 -234 92h-227v-440q0 -28 4 -92t10 -86q-16 -16 -37 -16q-36 0 -39 45v1200q0 28 -4 92t-10 86zM283 674q57 -2 227 -2q78 0 148.5 23t126 66.5t88 111.5t32.5 151q0 198 -112.5 277t-370.5 79q-106 0 -139 -8v-698z" />
<glyph unicode="S" horiz-adv-x="1112" d="M135 291q-1 51 17 73q15 18 48 18q6 0 13 -1q-10 -33 -10 -68q0 -141 97 -210.5t261 -69.5q170 0 267.5 73t97.5 211q0 54 -17 100.5t-44.5 82.5t-78.5 75t-100.5 69.5t-130.5 74.5l-78 43.5t-69 40.5t-65 43.5t-52.5 43.5t-46 49.5t-31.5 53.5t-22.5 63t-6.5 70 q0 78 31 138.5t85 96.5t123 54.5t150 18.5q170 0 274.5 -73t104.5 -194q0 -47 -26 -63q-19 -11 -49 -2q12 22 12 53q0 109 -91 165t-229 56q-63 0 -117.5 -12.5t-101 -39.5t-73.5 -75t-27 -114q0 -53 20.5 -100t42 -76.5t74 -67t77.5 -51.5t91 -49q24 -13 35 -19 q102 -54 169 -98t123 -99t82.5 -118.5t26.5 -139.5q0 -50 -11 -95t-40.5 -91.5t-75.5 -80t-123 -54.5t-176 -21q-216 0 -323 90t-107 226z" />
<glyph unicode="T" horiz-adv-x="1030" d="M43 1384q-3 24 16 25h914q14 0 16.5 -12t-4.5 -25t-18 -16h-420l2 -1178q0 -128 12 -178q-16 -16 -37 -16q-35 0 -35 45l-4 1327h-419q-18 5 -23 28z" />
<glyph unicode="U" horiz-adv-x="1314" d="M195 1407q16 16 36 16q35 0 35 -45v-755q0 -302 95 -446t294 -144q200 0 303 150t103 440v606q0 129 -12 178q16 16 36 16q35 0 35 -45v-755q0 -319 -118 -483.5t-347 -164.5q-230 0 -339 157.5t-109 490.5v606q0 129 -12 178z" />
<glyph unicode="V" horiz-adv-x="1132" d="M31 1415q19 19 41 19q31 0 41 -29l452 -1350l432 1303q11 28 11 43q0 21 -4 29q10 4 28 4q21 0 32.5 -10t10.5 -27q0 -7 -12 -49l-455 -1348q-21 -16 -45 -16q-39 0 -51 34l-449 1336q-10 35 -32 61z" />
<glyph unicode="W" horiz-adv-x="1816" d="M51 1415q19 19 41 19q31 0 41 -29l381 -1356l369 1184q8 24 2 47q17 10 39 10q18 0 26 -2l387 -1239l359 1309q10 25 10 43q0 21 -4 29q10 4 29 4q21 0 32.5 -10t10.5 -27q0 -3 -13 -49l-383 -1348q-19 -16 -43 -16q-42 0 -51 34l-360 1158l-367 -1176q-21 -16 -45 -16 q-42 0 -51 34l-377 1336q-10 33 -33 61z" />
<glyph unicode="X" horiz-adv-x="1175" d="M51 1346q0 31 29 54t74 23q92 0 157 -118l283 -527l405 633q16 23 37 23q31 0 39 -43q-44 -37 -108 -136l-342 -530l319 -592q24 -42 46.5 -64t53.5 -22q32 0 46.5 21.5t9.5 44.5q23 -1 35 -15t12 -35q0 -31 -29 -54t-74 -23q-97 0 -159 118l-303 566l-443 -658 q-16 -22 -37 -22q-34 0 -39 43q34 30 105 133l381 563l-295 547q-24 45 -47 65.5t-53 20.5q-33 0 -47 -19.5t-9 -46.5q-23 1 -35 15t-12 35z" />
<glyph unicode="Y" horiz-adv-x="1048" d="M41 1411q20 23 47 23q28 0 41 -29l401 -854l383 790q21 47 21 58q0 23 -4 31q10 4 28 4q41 0 41 -45q0 -16 -16 -48l-426 -858l2 -305q0 -128 12 -178q-16 -16 -36 -16q-35 0 -35 45l-2 458l-414 867q-4 10 -11.5 20.5t-19.5 23.5z" />
<glyph unicode="Z" horiz-adv-x="1132" d="M106 18q0 31 39 91l801 1249h-586q-94 0 -138 -34.5t-44 -90.5q0 -50 24.5 -84.5t76.5 -65.5q-10 -20 -41 -20q-50 0 -83.5 54t-33.5 118q0 74 62.5 125t170.5 51h357q217 0 262 10l35 -18q0 -55 -31 -107l-801 -1243h608q220 0 220 146q0 57 -26 101q-28 46 -69 71 q4 2 11 6.5t9.5 5.5t7.5 2.5t11 1.5q54 0 85.5 -62t31.5 -126q0 -87 -65 -143t-193 -56h-424q-172 0 -254 -10z" />
<glyph unicode="[" horiz-adv-x="634" d="M205 -328v1823h225v-49h-164v-1725h164v-49h-225z" />
<glyph unicode="\" horiz-adv-x="800" d="M104 1495h66l661 -1786h-65z" />
<glyph unicode="]" horiz-adv-x="634" d="M143 -279h164v1725h-164v49h226v-1823h-226v49z" />
<glyph unicode="^" horiz-adv-x="1095" d="M164 582l348 323q36 6 72 0l348 -323q-17 -17 -49 -17l-334 271l-334 -271q-12 0 -29.5 4.5t-21.5 12.5z" />
<glyph unicode="_" horiz-adv-x="763" d="M-61 -137l886 -4v-54l-886 5v53z" />
<glyph unicode="`" d="M385 1411q39 24 92 27l187 -287q-3 -7 -21 -9.5t-31 -0.5z" />
<glyph unicode="a" horiz-adv-x="1093" d="M113 209q0 111 80.5 194.5t240.5 126.5q131 34 269 35q63 0 128 -8v53q0 193 -80.5 287t-256.5 94q-51 0 -95.5 -8t-88.5 -26.5t-69.5 -55t-25.5 -88.5q0 -45 26.5 -87.5t75.5 -53.5q-20 -33 -55 -33q-44 0 -75 54t-31 116q0 119 93 179.5t257 60.5q387 0 387 -439v-465 q0 -108 78 -108q21 0 44 15t34 40q18 -21 18 -43q0 -32 -30.5 -50.5t-67.5 -18.5q-70 0 -104 45t-34 125v178q-76 -165 -206.5 -259t-270.5 -94q-118 0 -179.5 65t-61.5 169zM178 213q0 -78 46 -130t143 -52q77 0 159.5 42.5t148.5 110t110 156t46 174.5q-31 3 -68 3 q-59 1 -131 -7q-116 -12 -194 -35q-260 -77 -260 -262z" />
<glyph unicode="b" horiz-adv-x="1083" d="M180 115v1331q0 45 39 45q21 0 37 -16q-10 -33 -10 -175l-2 -552q42 127 145 214t238 87q348 0 348 -486q0 -94 -14.5 -178.5t-47 -160t-81 -130.5t-121.5 -87t-164 -32q-59 0 -117.5 9t-132 42.5t-117.5 88.5zM242 143q32 -47 124 -80q85 -30 171 -30h16 q74 2 132.5 26.5t96.5 67t64.5 93.5t40 113t19 117t5.5 115q0 217 -72.5 321.5t-207.5 104.5q-86 0 -155 -38t-111.5 -96t-71 -132.5t-40 -142.5t-11.5 -131v-308z" />
<glyph unicode="c" horiz-adv-x="1021" d="M109 498q0 257 120.5 404t337.5 147q148 0 235 -69t87 -187q0 -62 -24.5 -101t-63.5 -39q-35 0 -53 33q38 0 56.5 30.5t18.5 76.5q0 98 -77 150t-189 52q-172 0 -277.5 -125t-105.5 -364q0 -105 21.5 -187.5t57 -135t84.5 -86.5t101 -48t111 -14q77 0 140.5 22t114.5 78 t70 141q22 -10 28 -26q1 -4 1 -10q0 -18 -12 -52q-37 -106 -128.5 -159.5t-219.5 -53.5q-203 0 -318.5 133.5t-115.5 389.5z" />
<glyph unicode="d" horiz-adv-x="1114" d="M109 455q0 278 108.5 436t312.5 158q116 0 197 -52.5t115 -148.5l-2 438q0 143 -11 189q16 16 37 16q39 0 39 -45l-2 -1301q0 -102 62 -102q39 0 55 37q20 -23 20 -45q0 -23 -22.5 -36t-59.5 -13q-116 0 -116 164v133q-52 -138 -149.5 -223t-243.5 -85q-64 0 -116.5 18.5 t-87 48t-60.5 72.5t-40 84.5t-22.5 92t-11 87.5t-2.5 77zM174 459q0 -426 279 -426q175 0 282 155.5t107 397.5q0 59 -8 112.5t-30.5 108.5t-58 94.5t-93.5 64.5t-134 25q-159 0 -251.5 -134.5t-92.5 -397.5z" />
<glyph unicode="e" horiz-adv-x="1017" d="M109 498q0 258 117.5 404.5t338.5 146.5q154 0 243 -73.5t89 -207.5q0 -154 -124 -231.5t-361 -77.5q-106 0 -238 20q4 -123 36.5 -212t87 -138t118 -71.5t139.5 -22.5q115 0 204 50t115 151q29 -12 29 -42q0 -20 -12 -47q-37 -85 -128.5 -128.5t-213.5 -43.5 q-209 0 -324.5 133t-115.5 390zM174 530q130 -20 262 -20q195 0 296.5 65t101.5 193q0 50 -16 90t-42 64.5t-62.5 41t-73.5 23t-79 6.5q-172 0 -276.5 -117t-110.5 -346z" />
<glyph unicode="f" horiz-adv-x="761" d="M74 967l2 28q4 29 22 29h142v158q0 47 5.5 87.5t24 88t48.5 80.5t84.5 55.5t127.5 22.5q100 0 166 -45.5t66 -127.5q0 -60 -29.5 -95.5t-58.5 -35.5q-8 0 -12 2q40 49 40 113q0 131 -176 131q-70 0 -116.5 -24t-68.5 -68t-30 -88t-8 -102v-152h215q67 0 107 4l-2 -29 q-3 -28 -23 -28h-297l-2 -793q0 -128 12 -178q-16 -16 -37 -16q-34 0 -34 45l-2 942h-43q-69 0 -123 -4z" />
<glyph unicode="g" horiz-adv-x="1083" d="M109 506q0 48 3 91.5t14.5 100t29.5 103.5t51.5 94.5t78 80t111 53t148.5 20.5q250 0 360 -136v-819q0 -586 -479 -586q-134 0 -222.5 66t-88.5 188q0 59 22 96.5t51 37.5q26 0 39 -19q-53 -31 -53 -108q0 -105 72.5 -154t183.5 -49q217 0 314.5 135t97.5 426v129 q-40 -129 -138.5 -202.5t-234.5 -73.5q-360 0 -360 526zM174 502q0 -465 299 -465q83 0 149.5 32.5t106.5 82.5t66.5 115t36.5 124t10 115l2 381q-41 52 -126 78t-192 26q-65 0 -118 -18t-89 -47.5t-63 -71.5t-42 -84.5t-24.5 -93t-12.5 -91t-3 -83.5z" />
<glyph unicode="h" horiz-adv-x="1134" d="M199 1446q0 45 39 45q20 0 36 -16q-10 -37 -12 -164l-2 -527q43 123 143 194t220 71q325 0 325 -441l2 -430q0 -124 13 -178q-16 -16 -37 -16q-35 0 -35 45l-2 581q0 194 -64.5 287.5t-208.5 93.5q-45 0 -90.5 -13.5t-94.5 -48t-86 -87.5t-61 -140t-24 -196 q0 -307 1.5 -389t10.5 -117q-16 -16 -36 -16q-35 0 -35 45z" />
<glyph unicode="i" horiz-adv-x="507" d="M176 1339q0 28 21 49t49 21t48.5 -21t20.5 -49t-20.5 -48.5t-48.5 -20.5t-49 20.5t-21 48.5zM209 1032q17 17 37 17q35 0 35 -45l4 -826q0 -128 12 -178q-16 -16 -37 -16q-35 0 -35 45l-4 825q0 128 -12 178z" />
<glyph unicode="j" horiz-adv-x="520" d="M-113 -336q0 26 12.5 46t37.5 20h6q-4 -16 -4 -45q0 -111 127 -111q100 0 137 64.5t37 197.5l2 1018q0 124 -13 178q17 17 37 17q35 0 35 -45l2 -1174q0 -313 -233 -313q-88 0 -135.5 38.5t-47.5 108.5zM197 1372q0 28 20.5 49t48.5 21t49 -21t21 -49t-21 -48.5 t-49 -20.5t-48.5 20.5t-20.5 48.5z" />
<glyph unicode="k" horiz-adv-x="1105" d="M199 1446q0 45 39 45q20 0 36 -16q-12 -36 -12 -164l-2 -625q46 165 164.5 264t275.5 99q115 0 182.5 -62t67.5 -178q0 -61 -22.5 -115t-63 -95.5t-87 -73t-103.5 -56.5q8 -9 33 -49l180 -324q18 -30 33 -42.5t38 -12.5q40 0 60 35q10 -13 10 -31q0 -29 -27 -45t-55 -16 q-64 0 -108 79l-215 383q-147 -58 -363 -116q0 -193 2 -244.5t10 -85.5q-16 -16 -36 -16q-35 0 -35 45zM260 379q80 23 134.5 40t126 43t119.5 49.5t99 56.5t81 67t49.5 78.5t19.5 93.5q0 94 -52.5 139t-140.5 45q-201 0 -318.5 -167.5t-117.5 -444.5z" />
<glyph unicode="l" horiz-adv-x="512" d="M193 150v1296q0 45 38 45q21 0 37 -16q-8 -21 -10 -103.5t-2 -298.5l-2 -928q0 -52 21.5 -80t62.5 -28q65 0 90 55q18 -21 18 -43q0 -32 -32.5 -50.5t-77.5 -18.5q-66 0 -104.5 44t-38.5 126z" />
<glyph unicode="m" horiz-adv-x="1787" d="M74 975q0 32 28 50.5t62 18.5q66 0 104.5 -44t38.5 -126v-104q42 130 133.5 204.5t202.5 74.5q258 0 303 -285q36 131 131 208t213 77q161 0 236.5 -110.5t75.5 -330.5l2 -430q0 -128 12 -178q-16 -16 -37 -16q-35 0 -35 45l-2 581q0 196 -59.5 288.5t-198.5 92.5 q-41 0 -82.5 -12.5t-85.5 -44.5t-78 -80t-57.5 -127.5t-26.5 -179.5l2 -369q0 -124 13 -178q-16 -16 -37 -16q-35 0 -35 45l-2 581q0 196 -59.5 288.5t-198.5 92.5q-42 0 -84.5 -14t-88 -50.5t-79.5 -91.5t-56 -145.5t-22 -204.5q0 -294 1.5 -372.5t10.5 -112.5 q-16 -16 -36 -16q-35 0 -35 45l-2 850q0 52 -21.5 80t-62.5 28q-51 0 -70 -55q-18 21 -18 43z" />
<glyph unicode="n" horiz-adv-x="1150" d="M74 995q0 23 22.5 36t59.5 13q62 0 89 -39.5t27 -121.5v-99q43 122 143.5 193.5t219.5 71.5q330 0 330 -441v-430q3 -134 14 -178q-16 -16 -37 -16q-39 0 -39 45v581q-2 194 -66 287.5t-208 93.5q-45 0 -90.5 -13.5t-94.5 -48t-86.5 -87.5t-61.5 -140t-24 -196 q0 -296 2 -383t11 -123q-16 -16 -37 -16q-37 0 -37 45v856q-1 57 -15 79.5t-46 22.5q-40 0 -56 -37q-20 23 -20 45z" />
<glyph unicode="o" horiz-adv-x="1093" d="M109 512q0 254 115.5 395.5t322.5 141.5t322.5 -141.5t115.5 -395.5t-115.5 -395.5t-322.5 -141.5t-322.5 141.5t-115.5 395.5zM174 512q0 -225 99 -352t274 -127t274 127t99 352t-99 352t-274 127t-274 -127t-99 -352z" />
<glyph unicode="p" horiz-adv-x="1114" d="M74 995q0 23 22.5 36t59.5 13q62 0 89 -39.5t27 -121.5v-142q52 138 150 223t244 85q64 0 116.5 -18.5t87 -48t60.5 -72.5t40 -84.5t22.5 -92t11 -87.5t2.5 -77q0 -278 -109 -436t-313 -158q-116 0 -197 52.5t-115 148.5v-393q0 -171 13 -234q-16 -16 -37 -16 q-39 0 -39 45l2 1307q0 57 -13.5 79.5t-47.5 22.5q-40 0 -56 -37q-20 23 -20 45zM272 438q0 -60 7 -112.5t27.5 -108t53 -95t88.5 -64.5t130 -25q172 0 267 133.5t95 398.5q0 426 -278 426q-175 0 -282.5 -155.5t-107.5 -397.5z" />
<glyph unicode="q" horiz-adv-x="1089" d="M109 485q0 54 8 111t25 123t49 123t76 104.5t111 75t148 27.5q126 0 226.5 -38.5t152.5 -101.5v-1331q0 -45 -39 -45q-21 0 -37 16q13 54 13 279v457q-40 -135 -143 -223.5t-236 -88.5q-354 0 -354 512zM174 479q0 -232 75 -340t220 -108q68 0 126.5 28t98 74.5 t69.5 102.5t47 117t25.5 113t8.5 95v326q-36 40 -126.5 72t-187.5 32q-67 0 -121.5 -22t-91 -56.5t-63.5 -82.5t-42 -94t-24 -98.5t-11.5 -88.5t-2.5 -70z" />
<glyph unicode="r" horiz-adv-x="845" d="M74 995q0 23 22.5 36t59.5 13q60 0 87 -41.5t27 -128.5v-71q33 119 105 182.5t170 63.5q95 0 152 -50t57 -143q0 -54 -24 -90t-52 -41q-16 -3 -25 2q41 50 41 121q0 143 -149 143q-39 0 -75 -13.5t-72.5 -48t-63 -87.5t-43.5 -139.5t-17 -196.5v-82q0 -252 1.5 -322 t9.5 -102q-16 -16 -39 -16q-35 0 -35 45v856q0 56 -14 79t-47 23q-40 0 -56 -37q-20 23 -20 45z" />
<glyph unicode="s" horiz-adv-x="942" d="M92 233q0 87 63 87q6 0 13 -1q-12 -30 -12 -65q0 -111 81.5 -166t221.5 -55q146 0 234.5 51t88.5 143q0 37 -14.5 68.5t-34.5 52t-56.5 42.5t-66 35.5t-78.5 35t-79 35.5q-12 6 -37 18q-36 17 -54 26t-49.5 26t-48 29.5t-40 31.5t-35.5 38t-25 42.5t-18 51.5t-5 60 q0 80 47 134t119 76t166 22q166 0 253 -56t87 -155q0 -48 -27 -64q-18 -12 -47 -2q11 25 11 53q0 166 -281 166q-114 0 -188 -40t-74 -128q0 -35 8 -64.5t28 -54.5t37 -42t53 -37.5t56.5 -30.5t65.5 -31q7 -3 10.5 -5t9 -4.5t10.5 -4.5q24 -11 72 -32t74.5 -33.5t66 -33.5 t61.5 -41t45.5 -47.5t33.5 -60.5t10 -72q0 -37 -10 -70.5t-36.5 -68t-68 -60t-110.5 -41.5t-158 -16q-191 0 -282 72.5t-91 185.5z" />
<glyph unicode="t" horiz-adv-x="665" d="M74 967l2 28q4 29 22 29h127v225q0 45 39 45q21 0 37 -16q-12 -30 -12 -254h157q67 0 107 4l-2 -29q-3 -28 -23 -28h-239v-94l-2 -732q0 -52 26.5 -82t77.5 -30q37 0 68 15t43 40q18 -21 18 -43q0 -32 -38.5 -51t-92.5 -19q-75 0 -119.5 44t-44.5 126v826h-28 q-69 0 -123 -4z" />
<glyph unicode="u" horiz-adv-x="1128" d="M170 1032q17 17 37 17q35 0 35 -45l2 -582q0 -150 27.5 -235t83.5 -119.5t153 -34.5q44 0 88.5 13.5t92 49t84 89t60 142t23.5 199.5q0 307 -1.5 389t-10.5 117q17 17 37 17q34 0 34 -45l3 -857q0 -57 13.5 -79.5t47.5 -22.5q39 0 55 37q21 -24 21 -45q0 -23 -22.5 -36 t-59.5 -13q-62 0 -89.5 40t-27.5 122v94q-44 -124 -141 -196.5t-213 -72.5q-166 0 -241.5 101.5t-76.5 347.5l-2 430q0 128 -12 178z" />
<glyph unicode="v" horiz-adv-x="950" d="M31 1006q18 18 41 18q31 0 41 -29l370 -956l351 909q10 25 10 43q0 21 -4 29q10 4 28 4q21 0 32.5 -10t10.5 -27q0 -21 -12 -49l-373 -938q-21 -16 -45 -16q-39 0 -51 34l-367 926q-16 43 -32 62z" />
<glyph unicode="w" horiz-adv-x="1501" d="M41 1006q18 18 41 18q31 0 41 -29l309 -956l273 909q8 32 8 43q0 21 -4 29q20 12 49 12q17 0 30 -8l293 -985l293 909q10 25 10 43q0 21 -4 29q10 4 29 4q21 0 32.5 -10t10.5 -27q0 -21 -12 -49l-312 -938q-21 -16 -43 -16q-46 0 -55 34l-272 926l-281 -944 q-21 -16 -49 -16q-37 0 -49 34l-305 926q-15 41 -33 62z" />
<glyph unicode="x" horiz-adv-x="989" d="M35 971q0 31 28 54.5t72 23.5q90 0 158 -117l201 -354l325 448q16 23 37 23q29 0 37 -41q-10 -8 -22.5 -23.5t-22.5 -28.5t-30 -40.5t-32 -43.5l-262 -348l236 -405q26 -44 48 -65t54 -21q33 0 46.5 21t6.5 44q23 -1 35.5 -14.5t12.5 -34.5q0 -30 -28 -53t-73 -23 q-53 0 -89.5 31t-67.5 86l-224 389l-340 -481q-16 -23 -37 -23q-31 0 -36 41q23 20 104 134l277 385l-211 368q-28 47 -50 66.5t-51 19.5q-33 0 -46.5 -19t-8.5 -46q-23 1 -35 14.5t-12 32.5z" />
<glyph unicode="y" horiz-adv-x="1097" d="M170 -266q0 50 17 85.5t46 35.5q24 0 37 -19q-41 -21 -41 -88q0 -52 23.5 -90t63 -56.5t79 -27t82.5 -8.5q201 0 290 133t89 428v133q-41 -131 -140 -205.5t-233 -74.5q-149 0 -223.5 102.5t-75.5 341.5l-2 430q0 128 -12 178q17 17 37 17q35 0 35 -45l2 -582 q0 -207 57 -296t184 -89q54 0 103.5 14t99.5 50.5t86 92.5t59 146.5t23 206.5q0 294 -1.5 372.5t-10.5 112.5q17 17 37 17q34 0 34 -45l5 -910q0 -586 -439 -586q-79 0 -146.5 21.5t-116 74.5t-48.5 130z" />
<glyph unicode="z" horiz-adv-x="974" d="M84 14q0 26 29 68l669 885h-483q-76 0 -111.5 -32t-35.5 -79q0 -61 63 -106q-10 -17 -31 -17q-43 0 -68.5 39t-25.5 88q0 69 55 116.5t150 47.5h336q161 0 194 8l21 -14q0 -58 -31 -100l-655 -863h499q94 0 136.5 41.5t42.5 102.5q0 40 -19 75t-47 50q21 12 37 12 q25 0 44 -14.5t28.5 -37.5t13.5 -46t4 -45q0 -87 -59.5 -140t-157.5 -53h-383q-138 0 -199 -8z" />
<glyph unicode="{" horiz-adv-x="700" d="M164 565v49q80 31 108.5 80t28.5 142q0 81 -16.5 216t-16.5 185q0 145 70 218t184 73q37 0 71.5 -7t41.5 -14q8 -4 5 -19.5t-19 -19.5l-32 4q-32 3 -46 3q-102 0 -159.5 -59t-57.5 -171q0 -43 17 -179t17 -214q0 -222 -104 -256v-12q47 -14 75.5 -77t28.5 -175 q0 -72 -17 -213t-17 -185q0 -113 57.5 -172t159.5 -59q9 0 78 6q16 -4 19 -19.5t-5 -19.5q-7 -7 -41.5 -13.5t-71.5 -6.5q-114 0 -184 72.5t-70 216.5q0 51 16.5 193.5t16.5 219.5q0 94 -29.5 137.5t-107.5 75.5z" />
<glyph unicode="|" horiz-adv-x="471" d="M205 -281v1776h61v-1776h-61z" />
<glyph unicode="}" horiz-adv-x="700" d="M61 -310.5q3 15.5 19 19.5q69 -6 78 -6q102 0 159.5 59t57.5 172q0 44 -17.5 185t-17.5 213q0 112 28.5 175t75.5 77v12q-104 34 -104 256q0 78 17.5 214t17.5 179q0 112 -57.5 171t-159.5 59q-10 0 -24 -1t-30 -3l-24 -3q-16 4 -19 19.5t5 19.5q7 7 41 14t71 7 q114 0 184 -73t70 -218q0 -50 -16.5 -185t-16.5 -216q0 -93 28.5 -142t109.5 -80v-49q-78 -32 -108 -75.5t-30 -137.5q0 -77 16.5 -219.5t16.5 -193.5q0 -144 -70 -216.5t-184 -72.5q-37 0 -71 6.5t-41 13.5q-8 4 -5 19.5z" />
<glyph unicode="~" horiz-adv-x="1067" d="M164 686q16 66 66 100.5t114 34.5q62 0 119.5 -16.5t94 -35.5t90 -35.5t108.5 -16.5q37 0 56.5 24t35.5 72q34 0 55 -18q-12 -62 -56.5 -102t-105.5 -40q-62 0 -119 16.5t-93.5 36t-88 36t-104.5 16.5q-42 0 -75.5 -25t-45.5 -69q-22 -2 -51 22z" />
<glyph unicode="&#xa2;" horiz-adv-x="1021" d="M115 702q0 206 79 344t226 185l-12 65q-19 113 -43 174q14 19 28 21q15 3 24.5 -7t14.5 -32l37 -209q55 10 104 10q148 0 235 -69t87 -187q0 -62 -24 -100.5t-64 -38.5q-35 0 -53 33q38 0 56.5 30t18.5 76q0 98 -77.5 150.5t-188.5 52.5q-48 0 -84 -8l168 -942 q88 19 150 75.5t84 155.5q46 -18 16 -88q-56 -162 -240 -203l15 -79q19 -113 43 -174q-14 -19 -29 -21q-15 -3 -24.5 7t-14.5 32l-41 227q-18 -2 -57 -2q-203 0 -318.5 133t-115.5 389zM180 711q0 -105 21.5 -187.5t57 -135t84.5 -86.5t101 -48t111 -14q27 0 41 2l-168 936 q-115 -43 -181.5 -161.5t-66.5 -305.5z" />
<glyph unicode="&#xa3;" horiz-adv-x="1040" d="M68 612l2 29q4 29 22 29h180q-3 34 -12.5 115.5t-14.5 137t-5 97.5q0 119 28 203t79.5 128.5t112 63.5t138.5 19q116 0 187 -59.5t71 -139.5q0 -47 -31 -47q-12 0 -20 4q0 87 -60.5 135.5t-146.5 48.5q-51 0 -91.5 -8t-80.5 -31.5t-67 -61.5t-43.5 -102.5t-16.5 -150.5 q0 -53 5 -110t14.5 -129.5t13.5 -112.5h282q67 0 107 4l-2 -29q-4 -29 -23 -29h-360q2 -27 2 -81q0 -141 -41 -243t-147 -241q131 0 394 1t394 1q10 -5 10 -20q0 -13 -7.5 -23t-18.5 -10h-832v45q110 162 150.5 262t40.5 232q0 9 -5 77h-86q-68 0 -122 -4z" />
<glyph unicode="&#xa5;" horiz-adv-x="1040" d="M41 1411q20 23 47 23q28 0 41 -29l358 -766h86l340 702q21 47 21 58q0 23 -4 31q10 4 28 4q41 0 41 -45q0 -16 -16 -48l-348 -702h106q67 0 107 4l-2 -29q-4 -28 -23 -28h-215l-51 -103v-69h184q67 0 107 4l-2 -29q-4 -29 -23 -29h-266l2 -182q0 -128 12 -178 q-16 -16 -36 -16q-35 0 -35 45l-2 331h-181q-68 0 -122 -4l2 29q4 29 22 29h279v73l-47 99h-134q-68 0 -122 -4l2 28q4 29 22 29h207l-342 715q-4 10 -11.5 20.5t-19.5 23.5zM514 586l16 -35l17 35h-33z" />
<glyph unicode="&#xa8;" d="M381 1272q0 28 21 48.5t49 20.5t48.5 -20.5t20.5 -48.5t-20.5 -49t-48.5 -21t-49 21t-21 49zM709 1272q0 28 20.5 48.5t48.5 20.5t49 -20.5t21 -48.5t-21 -49t-49 -21t-48.5 21t-20.5 49z" />
<glyph unicode="&#xa9;" horiz-adv-x="1714" d="M123 709q0 197 98 364t267 264t370 97q200 0 368.5 -97.5t266.5 -264.5t98 -363q0 -150 -58 -285.5t-156 -234t-233.5 -156.5t-285.5 -58t-286.5 58t-234.5 156.5t-156 234t-58 285.5zM178 709q0 -140 53.5 -266t144.5 -217.5t217 -145t265 -53.5q138 0 263.5 54 t216.5 145.5t144.5 217.5t53.5 265q0 183 -90.5 338t-246.5 245t-341 90q-139 0 -265 -53t-217 -143t-144.5 -215t-53.5 -262zM500 709q0 223 97 339.5t273 116.5q112 0 188.5 -34t76.5 -72q0 -9 -13 -16t-26 -3q-14 36 -74 58t-152 22q-149 0 -230 -105t-81 -306t81 -306.5 t230 -105.5q88 0 163.5 32t96.5 85q35 0 35 -19q0 -47 -89.5 -95t-205.5 -48q-176 0 -273 117t-97 340z" />
<glyph unicode="&#xab;" horiz-adv-x="1251" d="M76 463q-6 32 0 61l606 418l33 -45l-578 -399v-11l582 -401l-37 -43zM485 463q-6 32 0 61l607 418l32 -45l-577 -399v-11l581 -401l-36 -43z" />
<glyph unicode="&#xad;" horiz-adv-x="817" d="M123 496v57h571v-57h-571z" />
<glyph unicode="&#xae;" horiz-adv-x="1714" d="M123 709q0 197 98 364t267 264t370 97q200 0 368.5 -97.5t266.5 -264.5t98 -363q0 -150 -58 -285.5t-156 -234t-233.5 -156.5t-285.5 -58t-286.5 58t-234.5 156.5t-156 234t-58 285.5zM178 709q0 -140 53.5 -266t144.5 -217.5t217 -145t265 -53.5q138 0 263.5 54 t216.5 145.5t144.5 217.5t53.5 265q0 183 -90.5 338t-246.5 245t-341 90q-139 0 -265 -53t-217 -143t-144.5 -215t-53.5 -262zM565 1190q1 0 7 1.5t18.5 4t31 5t48 4t63.5 1.5q221 0 318.5 -61.5t97.5 -202.5q0 -93 -60 -160.5t-157 -91.5q33 -8 60.5 -35.5t40 -49.5 t36.5 -70l86 -191q30 -51 62 -51q34 0 51 24q8 -11 8 -24q0 -20 -22.5 -30.5t-45.5 -10.5q-29 0 -57 19t-47 53l-94 208q-29 61 -48 82q-51 52 -165 52h-164v-285q0 -81 12 -119q-20 -10 -39 -10q-28 0 -31 29v790q0 88 -10 119zM633 709h164q122 0 207.5 60t85.5 167 q0 126 -84.5 176.5t-276.5 50.5q-69 0 -96 -6v-448z" />
<glyph unicode="&#xb4;" d="M469 1151l186 287q54 -3 93 -27l-228 -270q-13 -2 -30.5 0.5t-20.5 9.5z" />
<glyph unicode="&#xb8;" d="M438 -330q-1 11 7 24.5t18 20.5q56 -45 127 -45q53 0 85 25t32 74q0 110 -168 98l28 133h62l-19 -84q78 0 121 -39t43 -104q0 -72 -50.5 -116t-125.5 -44q-107 0 -160 57z" />
<glyph unicode="&#xbb;" horiz-adv-x="1251" d="M123 86l582 401v11l-578 399l33 45l606 -418q6 -29 0 -61l-606 -420zM532 86l582 401v11l-577 399l32 45l607 -418q6 -29 0 -61l-607 -420z" />
<glyph unicode="&#x2c6;" d="M352 1155l226 242q36 6 71 0l225 -242q-16 -16 -49 -16l-211 188l-211 -188q-43 0 -51 16z" />
<glyph unicode="&#x2da;" d="M446 1282q0 75 47.5 119.5t124.5 44.5q74 0 119 -43t45 -113q-1 -75 -48 -119.5t-124 -44.5q-74 0 -119 43t-45 113zM500 1286q0 -53 31 -84t83 -31t83.5 31.5t31.5 83.5t-31.5 83.5t-83.5 31.5t-83 -31t-31 -84z" />
<glyph unicode="&#x2dc;" d="M328 1223q14 66 60.5 101.5t105.5 35.5q38 0 72.5 -16.5t56 -36t53.5 -36t65 -16.5q39 0 61.5 24.5t39.5 72.5q25 0 41 -19q-12 -62 -53.5 -101.5t-98.5 -39.5q-38 0 -72.5 16t-56 36t-52.5 36t-63 16q-41 0 -74.5 -25t-45.5 -69q-19 -3 -39 21z" />
<glyph unicode="&#x2000;" horiz-adv-x="793" />
<glyph unicode="&#x2001;" horiz-adv-x="1587" />
<glyph unicode="&#x2002;" horiz-adv-x="793" />
<glyph unicode="&#x2003;" horiz-adv-x="1587" />
<glyph unicode="&#x2004;" horiz-adv-x="529" />
<glyph unicode="&#x2005;" horiz-adv-x="396" />
<glyph unicode="&#x2006;" horiz-adv-x="264" />
<glyph unicode="&#x2007;" horiz-adv-x="264" />
<glyph unicode="&#x2008;" horiz-adv-x="198" />
<glyph unicode="&#x2009;" horiz-adv-x="317" />
<glyph unicode="&#x200a;" horiz-adv-x="88" />
<glyph unicode="&#x2010;" horiz-adv-x="817" d="M123 496v57h571v-57h-571z" />
<glyph unicode="&#x2011;" horiz-adv-x="817" d="M123 496v57h571v-57h-571z" />
<glyph unicode="&#x2012;" horiz-adv-x="817" d="M123 496v57h571v-57h-571z" />
<glyph unicode="&#x2013;" horiz-adv-x="954" d="M102 496v57h750v-57h-750z" />
<glyph unicode="&#x2014;" horiz-adv-x="1595" d="M123 496v57h1350v-57h-1350z" />
<glyph unicode="&#x2018;" horiz-adv-x="319" d="M82 1284q0 108 117 203q24 -7 37 -29q-54 -57 -54 -117q0 -62 56 -84q0 -21 -20 -45t-56 -24q-31 0 -55.5 20.5t-24.5 75.5z" />
<glyph unicode="&#x2019;" horiz-adv-x="319" d="M82 1397q0 21 20 45t56 24q31 0 55.5 -20.5t24.5 -75.5q0 -108 -117 -203q-24 7 -37 29q53 56 53 117q0 63 -55 84z" />
<glyph unicode="&#x201a;" horiz-adv-x="319" d="M82 39q0 21 20 45.5t56 24.5q31 0 55.5 -21t24.5 -76q0 -107 -117 -202q-25 7 -37 28q53 56 53 117q0 63 -55 84z" />
<glyph unicode="&#x201c;" horiz-adv-x="557" d="M82 1284q0 108 117 203q24 -7 37 -29q-54 -57 -54 -117q0 -62 56 -84q0 -21 -20 -45t-56 -24q-31 0 -55.5 20.5t-24.5 75.5zM319 1284q0 108 117 203q24 -7 37 -29q-53 -56 -53 -117q0 -63 55 -84q0 -21 -20 -45t-56 -24q-31 0 -55.5 20.5t-24.5 75.5z" />
<glyph unicode="&#x201d;" horiz-adv-x="557" d="M98 1397q0 21 20 45t56 24q31 0 55.5 -20.5t24.5 -75.5q0 -108 -117 -203q-24 7 -37 29q54 57 54 117q0 62 -56 84zM336 1397q0 21 20 45t56 24q31 0 55.5 -20.5t24.5 -75.5q0 -108 -117 -203q-24 7 -37 29q53 56 53 117q0 63 -55 84z" />
<glyph unicode="&#x201e;" horiz-adv-x="557" d="M82 45q0 21 20 45.5t56 24.5q31 0 55.5 -21t24.5 -76q0 -107 -117 -202q-25 7 -37 28q53 56 53 117q0 63 -55 84zM319 45q0 21 20 45.5t56 24.5q31 0 55.5 -21t24.5 -76q0 -107 -117 -202q-23 7 -36 28q53 56 53 117q0 62 -56 84z" />
<glyph unicode="&#x2022;" horiz-adv-x="610" d="M164 547q0 57 41.5 98t99.5 41t99.5 -41t41.5 -98q0 -59 -41 -100t-100 -41t-100 41t-41 100z" />
<glyph unicode="&#x2026;" horiz-adv-x="1394" d="M164 45q0 28 20.5 49t48.5 21t49 -21t21 -49t-21 -49t-49 -21t-48.5 21t-20.5 49zM627 45q0 28 20.5 49t48.5 21t49 -21t21 -49t-21 -49t-49 -21t-48.5 21t-20.5 49zM1092 45q0 28 20.5 49t48.5 21t49 -21t21 -49t-21 -49t-49 -21t-48.5 21t-20.5 49z" />
<glyph unicode="&#x202f;" horiz-adv-x="317" />
<glyph unicode="&#x2039;" horiz-adv-x="841" d="M76 463q-6 32 0 61l606 418l33 -45l-578 -399v-11l582 -401l-37 -43z" />
<glyph unicode="&#x203a;" horiz-adv-x="841" d="M123 86l582 401v11l-578 399l33 45l606 -418q6 -29 0 -61l-606 -420z" />
<glyph unicode="&#x205f;" horiz-adv-x="396" />
<glyph unicode="&#x20ac;" horiz-adv-x="1249" d="M53 530q-16 29 0 58h176q-4 74 -4 117q0 38 4 104h-176q-13 28 0 57h180q29 278 158.5 423t343.5 145q116 0 209 -40.5t150 -105.5q18 -20 10.5 -47t-33.5 -27q-45 75 -133 118.5t-203 43.5q-183 0 -295.5 -130t-140.5 -380h653q0 -43 -26 -57h-631q-4 -66 -4 -104 q0 -43 4 -117h534q0 -44 -26 -58h-502q29 -244 141 -370.5t293 -126.5q122 0 227 78t132 206q21 6 37.5 -2.5t13.5 -27.5q-18 -122 -132.5 -217t-277.5 -95q-212 0 -340 141.5t-159 413.5h-183z" />
<glyph unicode="&#x2122;" horiz-adv-x="1247" d="M17 1412.5q1 8.5 8 8.5h413q7 0 8.5 -8.5t-1.5 -18.5t-9 -14q-101 10 -184 13v-494q0 -54 6 -84q-12 -12 -20 -12q-21 0 -21 28l-2 562q-58 0 -186 -13q-6 4 -9.5 14t-2.5 18.5zM557 1419q4 13 21 13q10 0 16 -13q242 -414 268 -458q45 81 129 241t117 221q9 9 22 9 q7 0 13 -8t6 -17l2 -508q0 -54 6 -84q-6 -12 -20 -12q-21 0 -21 28l-2 531l-237 -440q-20 -12 -35 0q-21 33 -246 421v-444q0 -48 4 -84q-3 -12 -20 -12t-17 26l-2 506q0 48 -4 84z" />
<glyph unicode="&#x25fc;" horiz-adv-x="1044" d="M0 0v1044h1044v-1044h-1044z" />
</font>
</defs>
</svg>
